<svg width="42" height="39" viewBox="0 0 42 39" fill="none" xmlns="http://www.w3.org/2000/svg">
<path d="M19.9375 0C30.9295 0 39.875 8.7143 39.875 19.4287C39.875 30.1432 30.9325 38.8575 19.9375 38.8575C8.94248 38.8575 0 30.1402 0 19.4287C0 8.71723 8.94248 0 19.9375 0ZM19.9375 30.9215C26.4417 30.9215 31.7342 25.764 31.7342 19.4258C31.7342 13.0876 26.4417 7.9301 19.9375 7.9301C13.4333 7.9301 8.14076 13.0905 8.14076 19.4287C8.14076 25.7669 13.4333 30.9244 19.9375 30.9244V30.9215Z" fill="url(#paint0_linear_108_294751)"/>
<path d="M28.2772 27.5563C34.4619 21.5295 34.4619 11.7196 28.2772 5.68982C22.0925 -0.337059 12.0258 -0.337059 5.83813 5.69275C13.6112 -1.88196 26.2609 -1.88196 34.0339 5.69275C41.807 13.2675 41.807 25.5944 34.0339 33.1691L28.2772 27.5593V27.5563Z" fill="url(#paint1_linear_108_294751)"/>
<path d="M28.2772 27.555C22.0925 33.5819 12.0258 33.5819 5.83809 27.555C-0.346595 21.5281 -0.346595 11.7183 5.83809 5.69141C-1.93496 13.2661 -1.93496 25.593 5.83809 33.1677C13.6112 40.7424 26.2608 40.7424 34.0339 33.1677L28.2772 27.5579V27.555Z" fill="url(#paint2_linear_108_294751)"/>
<g style="mix-blend-mode:overlay">
<path d="M7.39322 28.879C5.31357 26.2621 4.0688 22.9843 4.0688 19.4275C4.0688 10.9012 11.1878 3.96675 19.9344 3.96675C23.5843 3.96675 26.9509 5.17683 29.6334 7.20634C29.2175 6.68061 28.7684 6.17249 28.2741 5.69081C22.3486 -0.0893455 12.8576 -0.324311 6.6337 4.97123C6.09721 5.44116 5.58483 5.93753 5.10259 6.46326C-0.331614 12.5313 -0.0904953 21.7772 5.83801 27.5544C6.3323 28.0361 6.85372 28.4737 7.39322 28.879V28.879Z" fill="url(#paint3_linear_108_294751)"/>
<path d="M28.2772 5.69154C33.7536 11.0282 34.3775 19.3225 30.161 25.3406C30.4413 25.5491 30.7125 25.7723 30.9687 26.019L33.1086 28.1043C38.0576 21.2991 37.4096 11.783 31.1586 5.69154C24.1752 -1.11072 12.8185 -1.11072 5.83813 5.69154C12.0258 -0.338272 22.0925 -0.338272 28.2772 5.69154Z" fill="url(#paint4_linear_108_294751)"/>
<path d="M24.9678 31.3908C24.6453 31.0765 24.3047 30.7975 23.9491 30.5479C18.0447 33.3146 10.7328 32.3218 5.84108 27.555C-0.346622 21.5281 -0.346621 11.7183 5.83807 5.69141C-1.14231 12.4937 -1.14231 23.5606 5.83807 30.3628C11.5586 35.9374 20.2178 36.9389 26.9992 33.3763L24.9648 31.3937L24.9678 31.3908Z" fill="url(#paint5_linear_108_294751)"/>
</g>
<path d="M30.9656 25.9626C27.7859 22.864 22.632 22.864 19.4522 25.9626L15.3472 29.96C18.4305 28.3387 22.3607 28.7969 24.9648 31.3345L30.3779 36.6095C33.5576 39.7081 38.7116 39.7081 41.8913 36.6095L30.9656 25.9626V25.9626Z" fill="url(#paint6_linear_108_294751)"/>
<path d="M19.4523 25.9626C22.632 22.864 27.7859 22.864 30.9657 25.9626L39.6248 34.4008L41.8944 36.6125C40.306 38.1603 36.5928 37.056 35.0044 35.5081L27.9698 28.653C25.0763 25.8334 20.5373 25.6072 17.4058 27.9657L19.4583 25.9656L19.4523 25.9626Z" fill="url(#paint7_linear_108_294751)"/>
<defs>
<linearGradient id="paint0_linear_108_294751" x1="-2.54722" y1="-2.47849" x2="24.9075" y2="25.6952" gradientUnits="userSpaceOnUse">
<stop stop-color="#18AEE5" stop-opacity="0.37"/>
<stop offset="0.18" stop-color="#18AEE5"/>
<stop offset="0.55" stop-color="#005196" stop-opacity="0.63"/>
<stop offset="0.98" stop-color="#005196"/>
</linearGradient>
<linearGradient id="paint1_linear_108_294751" x1="22.8521" y1="0.13581" x2="22.8521" y2="34.4467" gradientUnits="userSpaceOnUse">
<stop stop-color="#18AEE5" stop-opacity="0.37"/>
<stop offset="0.18" stop-color="#18AEE5"/>
<stop offset="0.55" stop-color="#005196" stop-opacity="0.63"/>
<stop offset="0.98" stop-color="#005196"/>
</linearGradient>
<linearGradient id="paint2_linear_108_294751" x1="-1.5763" y1="22.2682" x2="28.7745" y2="22.2682" gradientUnits="userSpaceOnUse">
<stop stop-color="#18AEE5" stop-opacity="0.37"/>
<stop offset="0.18" stop-color="#18AEE5"/>
<stop offset="0.55" stop-color="#005196" stop-opacity="0.63"/>
<stop offset="0.98" stop-color="#005196"/>
</linearGradient>
<linearGradient id="paint3_linear_108_294751" x1="-2.83322" y1="15.0248" x2="18.6535" y2="15.0248" gradientUnits="userSpaceOnUse">
<stop offset="0.06" stop-color="white"/>
<stop offset="0.95" stop-color="#3D3634"/>
</linearGradient>
<linearGradient id="paint4_linear_108_294751" x1="14.9946" y1="2.27572" x2="32.1619" y2="19.8926" gradientUnits="userSpaceOnUse">
<stop offset="0.06" stop-color="white"/>
<stop offset="0.95" stop-color="#3D3634"/>
</linearGradient>
<linearGradient id="paint5_linear_108_294751" x1="0.605797" y1="20.5736" x2="27.0022" y2="20.5736" gradientUnits="userSpaceOnUse">
<stop offset="0.06" stop-color="white"/>
<stop offset="0.95" stop-color="#3D3634"/>
</linearGradient>
<linearGradient id="paint6_linear_108_294751" x1="19.7351" y1="25.3788" x2="43.8592" y2="44.1704" gradientUnits="userSpaceOnUse">
<stop offset="0.18" stop-color="#F17025"/>
<stop offset="0.55" stop-color="#F17025" stop-opacity="0.63"/>
<stop offset="0.98" stop-color="#F17025"/>
</linearGradient>
<linearGradient id="paint7_linear_108_294751" x1="17.4027" y1="30.4975" x2="41.8944" y2="30.4975" gradientUnits="userSpaceOnUse">
<stop offset="0.06" stop-color="#DEB426"/>
<stop offset="0.74" stop-color="#F17025"/>
</linearGradient>
</defs>
</svg>
